<?xml version="1.0" standalone="no"?>
<!DOCTYPE svg PUBLIC "-//W3C//DTD SVG 20010904//EN"
 "http://www.w3.org/TR/2001/REC-SVG-20010904/DTD/svg10.dtd">
<svg version="1.0" xmlns="http://www.w3.org/2000/svg"
 width="1000.000000pt" height="1000.000000pt" viewBox="0 0 1000.000000 1000.000000"
 preserveAspectRatio="xMidYMid meet">
<metadata>
Created by potrace 1.14, written by Peter Selinger 2001-2017
</metadata>
<g transform="translate(0.000000,1000.000000) scale(0.100000,-0.100000)"
fill="#000000" stroke="none">
<path d="M5495 7513 c-3 -10 -166 -457 -362 -993 -195 -536 -442 -1213 -548
-1505 -106 -291 -356 -978 -555 -1525 -200 -547 -365 -1001 -367 -1008 -4 -10
62 -12 322 -10 l327 3 919 2520 c505 1386 919 2523 919 2528 0 4 -146 7 -324
7 -299 0 -324 -1 -331 -17z"/>
<path d="M1587 6177 l-1588 -862 3 -110 3 -109 630 -346 c347 -190 1049 -576
1560 -857 512 -280 945 -518 963 -527 l32 -17 0 384 0 383 -967 534 c-533 293
-972 536 -976 540 -4 4 431 249 967 546 l976 538 0 383 c0 211 -3 383 -7 382
-5 -1 -723 -389 -1596 -862z"/>
<path d="M6810 6656 l0 -383 975 -539 975 -538 -27 -17 c-16 -9 -454 -252
-975 -539 l-948 -522 0 -385 c0 -226 4 -383 9 -381 5 2 723 395 1595 873
l1585 870 1 111 0 111 -102 55 c-57 31 -773 418 -1591 862 -818 443 -1490 806
-1492 806 -3 0 -5 -173 -5 -384z"/>
</g>
</svg>
